<svg width="259.42373046875px" height="122px" xmlns="http://www.w3.org/2000/svg" viewBox="120.28813476562499 14 259.42373046875 122" style="background: rgba(0, 0, 0, 0);" preserveAspectRatio="xMidYMid"><defs><filter id="editing-metal-beveled"><feGaussianBlur stdDeviation="4" in="SourceAlpha" result="blur"></feGaussianBlur><feSpecularLighting surfaceScale="5" specularConstant="0.8" specularExponent="7.5" lighting-color="#ffffff" in="blur" result="specular"><fePointLight x="-250" y="-50" z="300"></fePointLight></feSpecularLighting><feComposite operator="in" in="specular" in2="SourceAlpha" result="comp"></feComposite><feComposite in="SourceGraphic" in2="comp" operator="arithmetic" k1="0" k2="1" k3="1" k4="0"></feComposite></filter></defs><g filter="url(#editing-metal-beveled)"><g transform="translate(162.31219205260277, 96.51000022888184)"><path d="M24.96-4.80L24.96-4.80L24.96-4.80Q24.96-9.28 26.75-18.24L26.75-18.24L17.28-18.24L13.76 0L0.38 0L8.51-42.24L22.02-42.24L18.30-23.36L27.78-23.36L31.30-42.24L44.80-42.24L44.80-42.24Q43.90-37.50 42.75-32.19L42.75-32.19L40.58-21.76L40.58-21.76Q38.14-9.60 38.14-4.29L38.14-4.29L38.14-4.29Q38.14-2.11 38.85-0.90L38.85-0.90L38.85-0.90Q35.65 1.28 31.90 1.28L31.90 1.28L31.90 1.28Q28.16 1.28 26.56-0.51L26.56-0.51L26.56-0.51Q24.96-2.30 24.96-4.80ZM60.29 1.28L60.29 1.28L60.29 1.28Q46.21 1.28 46.21-11.97L46.21-11.97L46.21-11.97Q46.21-21.38 51.39-27.46L51.39-27.46L51.39-27.46Q56.90-33.92 66.43-33.92L66.43-33.92L66.43-33.92Q73.34-33.92 76.86-30.72L76.86-30.72L76.86-30.72Q80.38-27.52 80.38-20.80L80.38-20.80L80.38-20.80Q80.38-10.56 74.88-4.61L74.88-4.61L74.88-4.61Q69.50 1.28 60.29 1.28ZM61.95-26.56L61.95-26.56L61.95-26.56Q61.18-24.83 60.58-22.24L60.58-22.24L60.58-22.24Q59.97-19.65 59.20-15.55L59.20-15.55L59.20-15.55Q58.43-11.46 58.43-6.40L58.43-6.40L58.43-6.40Q58.43-4.74 58.98-3.65L58.98-3.65L58.98-3.65Q59.52-2.56 60.99-2.56L60.99-2.56L60.99-2.56Q62.46-2.56 63.39-3.26L63.39-3.26L63.39-3.26Q64.32-3.97 65.02-5.63L65.02-5.63L65.02-5.63Q66.30-8.58 67.33-14.05L67.33-14.05L67.33-14.05Q68.35-19.52 68.45-21.89L68.45-21.89L68.45-21.89Q68.54-24.26 68.54-26.02L68.54-26.02L68.54-26.02Q68.54-27.78 68.03-28.93L68.03-28.93L68.03-28.93Q67.52-30.08 66.08-30.08L66.08-30.08L66.08-30.08Q64.64-30.08 63.68-29.18L63.68-29.18L63.68-29.18Q62.72-28.29 61.95-26.56ZM130.24 1.28L130.24 1.28L130.24 1.28Q122.50 1.28 122.50-4.74L122.50-4.74L122.50-4.74Q122.50-7.36 123.62-12.45L123.62-12.45L123.62-12.45Q124.74-17.54 125.12-19.58L125.12-19.58L125.12-19.58Q126.02-24.26 126.02-25.73L126.02-25.73L126.02-25.73Q126.02-28.99 123.58-28.99L123.58-28.99L123.58-28.99Q121.98-28.99 120.45-26.78L120.45-26.78L120.45-26.78Q118.91-24.58 118.21-20.16L118.21-20.16L114.24 0L101.76 1.28L105.22-16.13L105.22-16.13Q105.79-19.01 106.30-22.27L106.30-22.27L106.30-22.27Q106.82-25.54 106.82-26.05L106.82-26.05L106.82-26.05Q106.82-28.99 104.64-28.99L104.64-28.99L104.64-28.99Q103.17-28.99 101.57-26.82L101.57-26.82L101.57-26.82Q99.97-24.64 99.07-20.16L99.07-20.16L95.17 0L82.56 1.28L89.28-32.64L99.71-33.92L98.62-27.46L98.62-27.46Q100.29-30.91 103.36-32.42L103.36-32.42L103.36-32.42Q106.43-33.92 111.23-33.92L111.23-33.92L111.23-33.92Q113.98-33.92 115.78-32.58L115.78-32.58L115.78-32.58Q117.57-31.23 118.14-29.06L118.14-29.06L118.14-29.06Q119.23-31.30 122.02-32.61L122.02-32.61L122.02-32.61Q124.80-33.92 128.22-33.92L128.22-33.92L128.22-33.92Q131.65-33.92 133.34-33.18L133.34-33.18L133.34-33.18Q135.04-32.45 136.06-31.23L136.06-31.23L136.06-31.23Q137.79-28.99 137.79-24.90L137.79-24.90L137.79-24.90Q137.79-20.86 136.06-12.48L136.06-12.48L136.06-12.48Q135.17-8.38 135.17-6.88L135.17-6.88L135.17-6.88Q135.17-5.38 136.03-4.48L136.03-4.48L136.03-4.48Q136.90-3.58 138.18-3.46L138.18-3.46L138.18-3.46Q137.54-1.28 135.33 0L135.33 0L135.33 0Q133.12 1.28 130.24 1.28ZM169.02-10.82L169.02-10.82L169.02-10.82Q170.62-9.73 170.62-7.33L170.62-7.33L170.62-7.33Q170.62-4.93 169.41-3.39L169.41-3.39L169.41-3.39Q168.19-1.86 166.21-0.83L166.21-0.83L166.21-0.83Q162.11 1.28 157.70 1.28L157.70 1.28L157.70 1.28Q153.28 1.28 150.69 0.32L150.69 0.32L150.69 0.32Q148.10-0.64 146.37-2.43L146.37-2.43L146.37-2.43Q142.98-5.82 142.98-12.03L142.98-12.03L142.98-12.03Q142.98-21.70 148.22-27.58L148.22-27.58L148.22-27.58Q153.86-33.92 163.65-33.92L163.65-33.92L163.65-33.92Q169.73-33.92 172.74-31.36L172.74-31.36L172.74-31.36Q174.98-29.44 174.98-26.30L174.98-26.30L174.98-26.30Q174.98-15.04 155.52-15.04L155.52-15.04L155.52-15.04Q155.26-13.38 155.26-11.97L155.26-11.97L155.26-11.97Q155.26-9.02 156.58-7.90L156.58-7.90L156.58-7.90Q157.89-6.78 160.32-6.78L160.32-6.78L160.32-6.78Q162.75-6.78 165.34-7.90L165.34-7.90L165.34-7.90Q167.94-9.02 169.02-10.82ZM155.97-17.79L155.97-17.79L155.97-17.79Q160.51-17.79 163.14-20.61L163.14-20.61L163.14-20.61Q165.76-23.30 165.76-27.58L165.76-27.58L165.76-27.58Q165.76-29.06 165.22-29.86L165.22-29.86L165.22-29.86Q164.67-30.66 163.58-30.66L163.58-30.66L163.58-30.66Q162.50-30.66 161.57-30.24L161.57-30.24L161.57-30.24Q160.64-29.82 159.68-28.42L159.68-28.42L159.68-28.42Q157.31-25.22 155.97-17.79Z" fill="#444"></path></g></g><style>text {
  font-size: 64px;
  font-family: Arial Black;
  dominant-baseline: central;
  text-anchor: middle;
}</style></svg>