<svg width="395.8912109375px" height="122px" xmlns="http://www.w3.org/2000/svg" viewBox="52.05439453125001 14 395.8912109375 122" style="background: rgba(0, 0, 0, 0);" preserveAspectRatio="xMidYMid"><defs><filter id="editing-metal-beveled"><feGaussianBlur stdDeviation="4" in="SourceAlpha" result="blur"></feGaussianBlur><feSpecularLighting surfaceScale="5" specularConstant="0.8" specularExponent="7.5" lighting-color="#ffffff" in="blur" result="specular"><fePointLight x="-250" y="-50" z="300"></fePointLight></feSpecularLighting><feComposite operator="in" in="specular" in2="SourceAlpha" result="comp"></feComposite><feComposite in="SourceGraphic" in2="comp" operator="arithmetic" k1="0" k2="1" k3="1" k4="0"></feComposite></filter></defs><g filter="url(#editing-metal-beveled)"><g transform="translate(112.90218809247017, 98.75)"><path d="M26.11-42.69L26.11-42.69L26.11-42.69Q41.79-42.69 41.79-31.62L41.79-31.62L41.79-31.62Q41.79-25.54 37.89-21.89L37.89-21.89L37.89-21.89Q34.05-18.24 27.33-18.24L27.33-18.24L27.33-18.24Q24.19-18.24 21.76-20.03L21.76-20.03L21.76-20.03Q20.61-20.80 19.84-21.82L19.84-21.82L19.84-21.82Q24.51-21.82 26.98-24.67L26.98-24.67L26.98-24.67Q29.44-27.52 29.44-33.09L29.44-33.09L29.44-33.09Q29.44-38.66 23.94-38.66L23.94-38.66L22.40-38.66L22.40-38.66Q22.02-38.66 21.70-38.59L21.70-38.59L14.34 0L0.45 0L8.32-41.92L8.32-41.92Q15.17-42.56 19.14-42.62L19.14-42.62L19.14-42.62Q23.10-42.69 26.11-42.69ZM56.06 1.28L56.06 1.28L56.06 1.28Q41.98 1.28 41.98-11.97L41.98-11.97L41.98-11.97Q41.98-21.38 47.17-27.46L47.17-27.46L47.17-27.46Q52.67-33.92 62.21-33.92L62.21-33.92L62.21-33.92Q69.12-33.92 72.64-30.72L72.64-30.72L72.64-30.72Q76.16-27.52 76.16-20.80L76.16-20.80L76.16-20.80Q76.16-10.56 70.66-4.61L70.66-4.61L70.66-4.61Q65.28 1.28 56.06 1.28ZM57.73-26.56L57.73-26.56L57.73-26.56Q56.96-24.83 56.35-22.24L56.35-22.24L56.35-22.24Q55.74-19.65 54.98-15.55L54.98-15.55L54.98-15.55Q54.21-11.46 54.21-6.40L54.21-6.40L54.21-6.40Q54.21-4.74 54.75-3.65L54.75-3.65L54.75-3.65Q55.30-2.56 56.77-2.56L56.77-2.56L56.77-2.56Q58.24-2.56 59.17-3.26L59.17-3.26L59.17-3.26Q60.10-3.97 60.80-5.63L60.80-5.63L60.80-5.63Q62.08-8.58 63.10-14.05L63.10-14.05L63.10-14.05Q64.13-19.52 64.22-21.89L64.22-21.89L64.22-21.89Q64.32-24.26 64.32-26.02L64.32-26.02L64.32-26.02Q64.32-27.78 63.81-28.93L63.81-28.93L63.81-28.93Q63.30-30.08 61.86-30.08L61.86-30.08L61.86-30.08Q60.42-30.08 59.46-29.18L59.46-29.18L59.46-29.18Q58.50-28.29 57.73-26.56ZM99.97-17.98L99.97-17.98L99.97-17.98Q102.27-22.08 102.27-26.24L102.27-26.24L102.27-26.24Q102.27-28.99 100.29-28.99L100.29-28.99L100.29-28.99Q98.75-28.99 97.15-26.37L97.15-26.37L97.15-26.37Q95.49-23.74 94.98-20.35L94.98-20.35L91.65 0L78.40 1.28L84.93-32.64L95.49-33.92L94.34-27.46L94.34-27.46Q97.47-33.92 104.51-33.92L104.51-33.92L104.51-33.92Q108.22-33.92 110.24-32L110.24-32L110.24-32Q112.26-30.08 112.26-26.14L112.26-26.14L112.26-26.14Q112.26-22.21 109.66-19.71L109.66-19.71L109.66-19.71Q107.07-17.22 102.66-17.22L102.66-17.22L102.66-17.22Q100.74-17.22 99.97-17.98ZM114.30-6.40L114.30-6.40L114.30-6.40Q114.30-8.13 115.20-12.48L115.20-12.48L118.59-29.76L114.82-29.76L115.07-31.68L115.07-31.68Q122.75-33.98 130.18-39.62L130.18-39.62L133.25-39.62L131.71-32.64L136.70-32.64L136.13-29.76L131.20-29.76L127.94-12.48L127.94-12.48Q127.10-8.51 127.10-7.17L127.10-7.17L127.10-7.17Q127.10-4.10 129.79-3.46L129.79-3.46L129.79-3.46Q129.15-1.28 126.85 0L126.85 0L126.85 0Q124.54 1.28 121.28 1.28L121.28 1.28L121.28 1.28Q118.02 1.28 116.16-0.77L116.16-0.77L116.16-0.77Q114.30-2.82 114.30-6.40ZM161.34-37.12L161.34-37.12L161.34-37.12Q162.24-38.66 162.24-40.32L162.24-40.32L162.24-40.32Q162.24-43.26 160.45-43.26L160.45-43.26L160.45-43.26Q157.70-43.26 156.54-37.63L156.54-37.63L155.58-32.64L161.41-32.64L161.02-29.76L155.01-29.76L149.25 0L136.32 1.28L142.46-29.76L137.92-29.76L138.50-32.64L142.98-32.64L144.32-37.70L144.32-37.70Q145.47-42.37 150.40-44.54L150.40-44.54L150.40-44.54Q153.98-46.08 160-46.08L160-46.08L160-46.08Q166.02-46.08 168.70-44.54L168.70-44.54L168.70-44.54Q171.39-43.01 171.39-40.96L171.39-40.96L171.39-40.96Q171.39-38.91 169.79-37.63L169.79-37.63L169.79-37.63Q168.19-36.35 166.40-36.35L166.40-36.35L166.40-36.35Q162.88-36.35 161.34-37.12ZM174.27 1.28L174.27 1.28L174.27 1.28Q160.19 1.28 160.19-11.97L160.19-11.97L160.19-11.97Q160.19-21.38 165.38-27.46L165.38-27.46L165.38-27.46Q170.88-33.92 180.42-33.92L180.42-33.92L180.42-33.92Q187.33-33.92 190.85-30.72L190.85-30.72L190.85-30.72Q194.37-27.52 194.37-20.80L194.37-20.80L194.37-20.80Q194.37-10.56 188.86-4.61L188.86-4.61L188.86-4.61Q183.49 1.28 174.27 1.28ZM175.94-26.56L175.94-26.56L175.94-26.56Q175.17-24.83 174.56-22.24L174.56-22.24L174.56-22.24Q173.95-19.65 173.18-15.55L173.18-15.55L173.18-15.55Q172.42-11.46 172.42-6.40L172.42-6.40L172.42-6.40Q172.42-4.74 172.96-3.65L172.96-3.65L172.96-3.65Q173.50-2.56 174.98-2.56L174.98-2.56L174.98-2.56Q176.45-2.56 177.38-3.26L177.38-3.26L177.38-3.26Q178.30-3.97 179.01-5.63L179.01-5.63L179.01-5.63Q180.29-8.58 181.31-14.05L181.31-14.05L181.31-14.05Q182.34-19.52 182.43-21.89L182.43-21.89L182.43-21.89Q182.53-24.26 182.53-26.02L182.53-26.02L182.53-26.02Q182.53-27.78 182.02-28.93L182.02-28.93L182.02-28.93Q181.50-30.08 180.06-30.08L180.06-30.08L180.06-30.08Q178.62-30.08 177.66-29.18L177.66-29.18L177.66-29.18Q176.70-28.29 175.94-26.56ZM213.44-3.52L213.44-3.52L213.44-3.52Q211.46 1.28 205.12 1.28L205.12 1.28L205.12 1.28Q201.92 1.28 199.87-0.96L199.87-0.96L199.87-0.96Q198.21-2.82 198.21-4.93L198.21-4.93L198.21-4.93Q198.21-9.73 200.45-20.22L200.45-20.22L205.12-44.80L218.11-46.08L211.90-13.70L211.90-13.70Q210.82-8.96 210.82-7.30L210.82-7.30L210.82-7.30Q210.82-3.65 213.44-3.52ZM234.24-3.52L234.24-3.52L234.24-3.52Q232.26 1.28 225.92 1.28L225.92 1.28L225.92 1.28Q222.66 1.28 220.61-0.96L220.61-0.96L220.61-0.96Q218.88-2.94 218.88-4.93L218.88-4.93L218.88-4.93Q218.88-10.11 221.25-20.22L221.25-20.22L223.62-32.64L236.61-33.92L232.70-13.70L232.70-13.70Q231.62-8.96 231.62-7.30L231.62-7.30L231.62-7.30Q231.62-3.65 234.24-3.52ZM224.77-41.54L224.77-41.54L224.77-41.54Q224.77-44.03 226.85-45.38L226.85-45.38L226.85-45.38Q228.93-46.72 231.94-46.72L231.94-46.72L231.94-46.72Q234.94-46.72 236.77-45.38L236.77-45.38L236.77-45.38Q238.59-44.03 238.59-41.54L238.59-41.54L238.59-41.54Q238.59-39.04 236.58-37.76L236.58-37.76L236.58-37.76Q234.56-36.48 231.55-36.48L231.55-36.48L231.55-36.48Q228.54-36.48 226.66-37.76L226.66-37.76L226.66-37.76Q224.77-39.04 224.77-41.54ZM253.63 1.28L253.63 1.28L253.63 1.28Q239.55 1.28 239.55-11.97L239.55-11.97L239.55-11.97Q239.55-21.38 244.74-27.46L244.74-27.46L244.74-27.46Q250.24-33.92 259.78-33.92L259.78-33.92L259.78-33.92Q266.69-33.92 270.21-30.72L270.21-30.72L270.21-30.72Q273.73-27.52 273.73-20.80L273.73-20.80L273.73-20.80Q273.73-10.56 268.22-4.61L268.22-4.61L268.22-4.61Q262.85 1.28 253.63 1.28ZM255.30-26.56L255.30-26.56L255.30-26.56Q254.53-24.83 253.92-22.24L253.92-22.24L253.92-22.24Q253.31-19.65 252.54-15.55L252.54-15.55L252.54-15.55Q251.78-11.46 251.78-6.40L251.78-6.40L251.78-6.40Q251.78-4.74 252.32-3.65L252.32-3.65L252.32-3.65Q252.86-2.56 254.34-2.56L254.34-2.56L254.34-2.56Q255.81-2.56 256.74-3.26L256.74-3.26L256.74-3.26Q257.66-3.97 258.37-5.63L258.37-5.63L258.37-5.63Q259.65-8.58 260.67-14.05L260.67-14.05L260.67-14.05Q261.70-19.52 261.79-21.89L261.79-21.89L261.79-21.89Q261.89-24.26 261.89-26.02L261.89-26.02L261.89-26.02Q261.89-27.78 261.38-28.93L261.38-28.93L261.38-28.93Q260.86-30.08 259.42-30.08L259.42-30.08L259.42-30.08Q257.98-30.08 257.02-29.18L257.02-29.18L257.02-29.18Q256.06-28.29 255.30-26.56Z" fill="#444"></path></g></g><style>text {
  font-size: 64px;
  font-family: Arial Black;
  dominant-baseline: central;
  text-anchor: middle;
}</style></svg>