<svg width="548.9974487304687px" height="122px" xmlns="http://www.w3.org/2000/svg" viewBox="-24.498724365234352 14 548.9974487304687 122" style="background: rgba(0, 0, 0, 0);" preserveAspectRatio="xMidYMid"><defs><filter id="editing-metal-beveled"><feGaussianBlur stdDeviation="4" in="SourceAlpha" result="blur"></feGaussianBlur><feSpecularLighting surfaceScale="5" specularConstant="0.8" specularExponent="7.5" lighting-color="#ffffff" in="blur" result="specular"><fePointLight x="-250" y="-50" z="300"></fePointLight></feSpecularLighting><feComposite operator="in" in="specular" in2="SourceAlpha" result="comp"></feComposite><feComposite in="SourceGraphic" in2="comp" operator="arithmetic" k1="0" k2="1" k3="1" k4="0"></feComposite></filter></defs><g filter="url(#editing-metal-beveled)"><g transform="translate(54.114378452301025, 98.75)"><path d="M6.21-31.17L6.21-31.17L6.21-31.17Q4.03-32.83 4.03-36.38L4.03-36.38L4.03-36.38Q4.03-39.94 6.37-41.79L6.37-41.79L6.37-41.79Q8.70-43.65 12.74-43.65L12.74-43.65L12.74-43.65Q15.30-43.65 21.38-42.75L21.38-42.75L25.73-42.11L25.73-42.11Q27.90-41.86 30.18-41.86L30.18-41.86L30.18-41.86Q32.45-41.86 33.98-42.82L33.98-42.82L33.98-42.82Q36.29-40.77 36.29-37.82L36.29-37.82L36.29-37.82Q36.29-34.88 33.66-32.77L33.66-32.77L33.66-32.77Q30.98-30.53 27.52-30.53L27.52-30.53L27.52-30.53Q25.86-30.53 23.17-30.98L23.17-30.98L23.17-30.98Q20.03-21.12 20.03-14.27L20.03-14.27L20.03-14.27Q20.03-7.42 23.49-3.84L23.49-3.84L23.49-3.84Q21.89-0.96 19.52 0.16L19.52 0.16L19.52 0.16Q17.15 1.28 13.60 1.28L13.60 1.28L13.60 1.28Q10.05 1.28 7.84-0.67L7.84-0.67L7.84-0.67Q5.63-2.62 5.63-6.66L5.63-6.66L5.63-6.66Q5.63-11.33 8.19-19.01L8.19-19.01L8.19-19.01Q10.75-26.62 14.59-32.45L14.59-32.45L14.59-32.45Q12.74-32.64 10.82-32.64L10.82-32.64L10.82-32.64Q6.85-32.64 6.21-31.17ZM57.22-10.82L57.22-10.82L57.22-10.82Q58.82-9.73 58.82-7.33L58.82-7.33L58.82-7.33Q58.82-4.93 57.60-3.39L57.60-3.39L57.60-3.39Q56.38-1.86 54.40-0.83L54.40-0.83L54.40-0.83Q50.30 1.28 45.89 1.28L45.89 1.28L45.89 1.28Q41.47 1.28 38.88 0.32L38.88 0.32L38.88 0.32Q36.29-0.64 34.56-2.43L34.56-2.43L34.56-2.43Q31.17-5.82 31.17-12.03L31.17-12.03L31.17-12.03Q31.17-21.70 36.42-27.58L36.42-27.58L36.42-27.58Q42.05-33.92 51.84-33.92L51.84-33.92L51.84-33.92Q57.92-33.92 60.93-31.36L60.93-31.36L60.93-31.36Q63.17-29.44 63.17-26.30L63.17-26.30L63.17-26.30Q63.17-15.04 43.71-15.04L43.71-15.04L43.71-15.04Q43.46-13.38 43.46-11.97L43.46-11.97L43.46-11.97Q43.46-9.02 44.77-7.90L44.77-7.90L44.77-7.90Q46.08-6.78 48.51-6.78L48.51-6.78L48.51-6.78Q50.94-6.78 53.54-7.90L53.54-7.90L53.54-7.90Q56.13-9.02 57.22-10.82ZM44.16-17.79L44.16-17.79L44.16-17.79Q48.70-17.79 51.33-20.61L51.33-20.61L51.33-20.61Q53.95-23.30 53.95-27.58L53.95-27.58L53.95-27.58Q53.95-29.06 53.41-29.86L53.41-29.86L53.41-29.86Q52.86-30.66 51.78-30.66L51.78-30.66L51.78-30.66Q50.69-30.66 49.76-30.24L49.76-30.24L49.76-30.24Q48.83-29.82 47.87-28.42L47.87-28.42L47.87-28.42Q45.50-25.22 44.16-17.79ZM84.48-22.46L84.48-22.46L84.48-22.46Q85.38-24.83 85.38-26.88L85.38-26.88L85.38-26.88Q85.38-30.66 82.30-30.66L82.30-30.66L82.30-30.66Q80.70-30.66 79.39-29.22L79.39-29.22L79.39-29.22Q78.08-27.78 78.08-25.98L78.08-25.98L78.08-25.98Q78.08-24.70 79.10-23.68L79.10-23.68L79.10-23.68Q80.58-22.27 84.35-19.97L84.35-19.97L84.35-19.97Q88.13-17.66 89.57-15.78L89.57-15.78L89.57-15.78Q91.01-13.89 91.01-11.30L91.01-11.30L91.01-11.30Q91.01-8.70 89.76-6.34L89.76-6.34L89.76-6.34Q88.51-3.97 86.27-2.30L86.27-2.30L86.27-2.30Q81.47 1.28 73.79 1.28L73.79 1.28L73.79 1.28Q69.63 1.28 66.43-0.90L66.43-0.90L66.43-0.90Q63.23-3.01 63.23-5.50L63.23-5.50L63.23-5.50Q63.23-8 65.06-9.47L65.06-9.47L65.06-9.47Q66.88-10.94 69.57-10.94L69.57-10.94L69.57-10.94Q72.26-10.94 73.92-9.92L73.92-9.92L73.92-9.92Q73.09-7.81 73.09-6.40L73.09-6.40L73.09-6.40Q73.09-2.18 76.67-2.18L76.67-2.18L76.67-2.18Q78.21-2.18 79.23-3.14L79.23-3.14L79.23-3.14Q80.26-4.10 80.26-5.76L80.26-5.76L80.26-5.76Q80.26-9.02 74.75-12.48L74.75-12.48L74.75-12.48Q70.27-15.42 69.25-16.58L69.25-16.58L69.25-16.58Q67.52-18.62 67.52-21.18L67.52-21.18L67.52-21.18Q67.52-23.74 68.74-26.18L68.74-26.18L68.74-26.18Q69.95-28.61 72.19-30.34L72.19-30.34L72.19-30.34Q76.86-33.92 84.99-33.92L84.99-33.92L84.99-33.92Q89.15-33.92 91.62-32.26L91.62-32.26L91.62-32.26Q94.08-30.59 94.08-27.78L94.08-27.78L94.08-27.78Q94.08-24.96 92.38-23.36L92.38-23.36L92.38-23.36Q90.69-21.76 87.62-21.76L87.62-21.76L87.62-21.76Q85.50-21.76 84.48-22.46ZM97.47-6.40L97.47-6.40L97.47-6.40Q97.47-8.13 98.37-12.48L98.37-12.48L101.76-29.76L97.98-29.76L98.24-31.68L98.24-31.68Q105.92-33.98 113.34-39.62L113.34-39.62L116.42-39.62L114.88-32.64L119.87-32.64L119.30-29.76L114.37-29.76L111.10-12.48L111.10-12.48Q110.27-8.51 110.27-7.17L110.27-7.17L110.27-7.17Q110.27-4.10 112.96-3.46L112.96-3.46L112.96-3.46Q112.32-1.28 110.02 0L110.02 0L110.02 0Q107.71 1.28 104.45 1.28L104.45 1.28L104.45 1.28Q101.18 1.28 99.33-0.77L99.33-0.77L99.33-0.77Q97.47-2.82 97.47-6.40ZM134.91-3.52L134.91-3.52L134.91-3.52Q132.93 1.28 126.59 1.28L126.59 1.28L126.59 1.28Q123.33 1.28 121.28-0.96L121.28-0.96L121.28-0.96Q119.55-2.94 119.55-4.93L119.55-4.93L119.55-4.93Q119.55-10.11 121.92-20.22L121.92-20.22L124.29-32.64L137.28-33.92L133.38-13.70L133.38-13.70Q132.29-8.96 132.29-7.30L132.29-7.30L132.29-7.30Q132.29-3.65 134.91-3.52ZM125.44-41.54L125.44-41.54L125.44-41.54Q125.44-44.03 127.52-45.38L127.52-45.38L127.52-45.38Q129.60-46.72 132.61-46.72L132.61-46.72L132.61-46.72Q135.62-46.72 137.44-45.38L137.44-45.38L137.44-45.38Q139.26-44.03 139.26-41.54L139.26-41.54L139.26-41.54Q139.26-39.04 137.25-37.76L137.25-37.76L137.25-37.76Q135.23-36.48 132.22-36.48L132.22-36.48L132.22-36.48Q129.22-36.48 127.33-37.76L127.33-37.76L127.33-37.76Q125.44-39.04 125.44-41.54ZM186.43 1.28L186.43 1.28L186.43 1.28Q178.69 1.28 178.69-4.74L178.69-4.74L178.69-4.74Q178.69-7.36 179.81-12.45L179.81-12.45L179.81-12.45Q180.93-17.54 181.31-19.58L181.31-19.58L181.31-19.58Q182.21-24.26 182.21-25.73L182.21-25.73L182.21-25.73Q182.21-28.99 179.78-28.99L179.78-28.99L179.78-28.99Q178.18-28.99 176.64-26.78L176.64-26.78L176.64-26.78Q175.10-24.58 174.40-20.16L174.40-20.16L170.43 0L157.95 1.28L161.41-16.13L161.41-16.13Q161.98-19.01 162.50-22.27L162.50-22.27L162.50-22.27Q163.01-25.54 163.01-26.05L163.01-26.05L163.01-26.05Q163.01-28.99 160.83-28.99L160.83-28.99L160.83-28.99Q159.36-28.99 157.76-26.82L157.76-26.82L157.76-26.82Q156.16-24.64 155.26-20.16L155.26-20.16L151.36 0L138.75 1.28L145.47-32.64L155.90-33.92L154.82-27.46L154.82-27.46Q156.48-30.91 159.55-32.42L159.55-32.42L159.55-32.42Q162.62-33.92 167.42-33.92L167.42-33.92L167.42-33.92Q170.18-33.92 171.97-32.58L171.97-32.58L171.97-32.58Q173.76-31.23 174.34-29.06L174.34-29.06L174.34-29.06Q175.42-31.30 178.21-32.61L178.21-32.61L178.21-32.61Q180.99-33.92 184.42-33.92L184.42-33.92L184.42-33.92Q187.84-33.92 189.54-33.18L189.54-33.18L189.54-33.18Q191.23-32.45 192.26-31.23L192.26-31.23L192.26-31.23Q193.98-28.99 193.98-24.90L193.98-24.90L193.98-24.90Q193.98-20.86 192.26-12.48L192.26-12.48L192.26-12.48Q191.36-8.38 191.36-6.88L191.36-6.88L191.36-6.88Q191.36-5.38 192.22-4.48L192.22-4.48L192.22-4.48Q193.09-3.58 194.37-3.46L194.37-3.46L194.37-3.46Q193.73-1.28 191.52 0L191.52 0L191.52 0Q189.31 1.28 186.43 1.28ZM213.25 1.28L213.25 1.28L213.25 1.28Q199.17 1.28 199.17-11.97L199.17-11.97L199.17-11.97Q199.17-21.38 204.35-27.46L204.35-27.46L204.35-27.46Q209.86-33.92 219.39-33.92L219.39-33.92L219.39-33.92Q226.30-33.92 229.82-30.72L229.82-30.72L229.82-30.72Q233.34-27.52 233.34-20.80L233.34-20.80L233.34-20.80Q233.34-10.56 227.84-4.61L227.84-4.61L227.84-4.61Q222.46 1.28 213.25 1.28ZM214.91-26.56L214.91-26.56L214.91-26.56Q214.14-24.83 213.54-22.24L213.54-22.24L213.54-22.24Q212.93-19.65 212.16-15.55L212.16-15.55L212.16-15.55Q211.39-11.46 211.39-6.40L211.39-6.40L211.39-6.40Q211.39-4.74 211.94-3.65L211.94-3.65L211.94-3.65Q212.48-2.56 213.95-2.56L213.95-2.56L213.95-2.56Q215.42-2.56 216.35-3.26L216.35-3.26L216.35-3.26Q217.28-3.97 217.98-5.63L217.98-5.63L217.98-5.63Q219.26-8.58 220.29-14.05L220.29-14.05L220.29-14.05Q221.31-19.52 221.41-21.89L221.41-21.89L221.41-21.89Q221.50-24.26 221.50-26.02L221.50-26.02L221.50-26.02Q221.50-27.78 220.99-28.93L220.99-28.93L220.99-28.93Q220.48-30.08 219.04-30.08L219.04-30.08L219.04-30.08Q217.60-30.08 216.64-29.18L216.64-29.18L216.64-29.18Q215.68-28.29 214.91-26.56ZM264.19 1.28L264.19 1.28L264.19 1.28Q256.45 1.28 256.45-4.74L256.45-4.74L256.45-4.74Q256.51-6.40 257.02-9.22L257.02-9.22L258.18-15.10L258.18-15.10Q259.90-23.42 259.90-25.28L259.90-25.28L259.90-25.28Q259.90-28.99 257.73-28.99L257.73-28.99L257.73-28.99Q254.08-28.99 252.16-19.46L252.16-19.46L248.38 0L235.52 1.28L242.18-32.70L252.67-33.92L251.65-27.65L251.65-27.65Q254.66-33.92 263.87-33.92L263.87-33.92L263.87-33.92Q268.35-33.92 270.24-32.03L270.24-32.03L270.24-32.03Q272.13-30.14 272.13-25.92L272.13-25.92L272.13-25.92Q272.13-21.95 270.08-12.67L270.08-12.67L270.08-12.67Q269.12-8.51 269.12-6.94L269.12-6.94L269.12-6.94Q269.12-5.38 269.98-4.48L269.98-4.48L269.98-4.48Q270.85-3.58 272.13-3.46L272.13-3.46L272.13-3.46Q271.49-1.28 269.28 0L269.28 0L269.28 0Q267.07 1.28 264.19 1.28ZM292.61-3.52L292.61-3.52L292.61-3.52Q290.62 1.28 284.29 1.28L284.29 1.28L284.29 1.28Q281.02 1.28 278.98-0.96L278.98-0.96L278.98-0.96Q277.25-2.94 277.25-4.93L277.25-4.93L277.25-4.93Q277.25-10.11 279.62-20.22L279.62-20.22L281.98-32.64L294.98-33.92L291.07-13.70L291.07-13.70Q289.98-8.96 289.98-7.30L289.98-7.30L289.98-7.30Q289.98-3.65 292.61-3.52ZM283.14-41.54L283.14-41.54L283.14-41.54Q283.14-44.03 285.22-45.38L285.22-45.38L285.22-45.38Q287.30-46.72 290.30-46.72L290.30-46.72L290.30-46.72Q293.31-46.72 295.14-45.38L295.14-45.38L295.14-45.38Q296.96-44.03 296.96-41.54L296.96-41.54L296.96-41.54Q296.96-39.04 294.94-37.76L294.94-37.76L294.94-37.76Q292.93-36.48 289.92-36.48L289.92-36.48L289.92-36.48Q286.91-36.48 285.02-37.76L285.02-37.76L285.02-37.76Q283.14-39.04 283.14-41.54ZM300.83-1.92L300.83-1.92L300.83-1.92Q299.33-3.58 298.66-6.21L298.66-6.21L298.66-6.21Q297.98-8.83 297.98-13.12L297.98-13.12L297.98-13.12Q297.98-17.41 299.46-21.31L299.46-21.31L299.46-21.31Q300.93-25.22 303.62-28.03L303.62-28.03L303.62-28.03Q309.12-33.92 318.21-33.92L318.21-33.92L318.21-33.92Q321.47-33.92 323.84-32.83L323.84-32.83L334.78-33.92L330.05-8.96L330.05-8.96Q329.86-8.19 329.86-6.78L329.86-6.78L329.86-6.78Q329.86-5.38 330.72-4.48L330.72-4.48L330.72-4.48Q331.58-3.58 332.86-3.46L332.86-3.46L332.86-3.46Q332.22-1.28 329.89 0L329.89 0L329.89 0Q327.55 1.28 324.93 1.28L324.93 1.28L324.93 1.28Q322.30 1.28 320.54 0.29L320.54 0.29L320.54 0.29Q318.78-0.70 318.27-2.37L318.27-2.37L318.27-2.37Q317.25-0.77 315.07 0.26L315.07 0.26L315.07 0.26Q312.90 1.28 309.98 1.28L309.98 1.28L309.98 1.28Q307.07 1.28 304.70 0.51L304.70 0.51L304.70 0.51Q302.34-0.26 300.83-1.92ZM314.34-27.90L314.34-27.90L314.34-27.90Q313.60-26.75 312.96-24.80L312.96-24.80L312.96-24.80Q312.32-22.85 311.26-17.63L311.26-17.63L311.26-17.63Q310.21-12.42 310.21-8.70L310.21-8.70L310.21-8.70Q310.21-4.99 310.78-3.90L310.78-3.90L310.78-3.90Q311.36-2.82 312.38-2.82L312.38-2.82L312.38-2.82Q314.43-2.82 315.94-4.77L315.94-4.77L315.94-4.77Q317.44-6.72 318.02-10.18L318.02-10.18L321.41-28.93L321.41-28.93Q320.06-30.08 318.50-30.08L318.50-30.08L318.50-30.08Q316.93-30.08 316.00-29.57L316.00-29.57L316.00-29.57Q315.07-29.06 314.34-27.90ZM353.54-3.52L353.54-3.52L353.54-3.52Q351.55 1.28 345.22 1.28L345.22 1.28L345.22 1.28Q342.02 1.28 339.97-0.96L339.97-0.96L339.97-0.96Q338.30-2.82 338.30-4.93L338.30-4.93L338.30-4.93Q338.30-9.73 340.54-20.22L340.54-20.22L345.22-44.80L358.21-46.08L352.00-13.70L352.00-13.70Q350.91-8.96 350.91-7.30L350.91-7.30L350.91-7.30Q350.91-3.65 353.54-3.52ZM378.11-22.46L378.11-22.46L378.11-22.46Q379.01-24.83 379.01-26.88L379.01-26.88L379.01-26.88Q379.01-30.66 375.94-30.66L375.94-30.66L375.94-30.66Q374.34-30.66 373.02-29.22L373.02-29.22L373.02-29.22Q371.71-27.78 371.71-25.98L371.71-25.98L371.71-25.98Q371.71-24.70 372.74-23.68L372.74-23.68L372.74-23.68Q374.21-22.27 377.98-19.97L377.98-19.97L377.98-19.97Q381.76-17.66 383.20-15.78L383.20-15.78L383.20-15.78Q384.64-13.89 384.64-11.30L384.64-11.30L384.64-11.30Q384.64-8.70 383.39-6.34L383.39-6.34L383.39-6.34Q382.14-3.97 379.90-2.30L379.90-2.30L379.90-2.30Q375.10 1.28 367.42 1.28L367.42 1.28L367.42 1.28Q363.26 1.28 360.06-0.90L360.06-0.90L360.06-0.90Q356.86-3.01 356.86-5.50L356.86-5.50L356.86-5.50Q356.86-8 358.69-9.47L358.69-9.47L358.69-9.47Q360.51-10.94 363.20-10.94L363.20-10.94L363.20-10.94Q365.89-10.94 367.55-9.92L367.55-9.92L367.55-9.92Q366.72-7.81 366.72-6.40L366.72-6.40L366.72-6.40Q366.72-2.18 370.30-2.18L370.30-2.18L370.30-2.18Q371.84-2.18 372.86-3.14L372.86-3.14L372.86-3.14Q373.89-4.10 373.89-5.76L373.89-5.76L373.89-5.76Q373.89-9.02 368.38-12.48L368.38-12.48L368.38-12.48Q363.90-15.42 362.88-16.58L362.88-16.58L362.88-16.58Q361.15-18.62 361.15-21.18L361.15-21.18L361.15-21.18Q361.15-23.74 362.37-26.18L362.37-26.18L362.37-26.18Q363.58-28.61 365.82-30.34L365.82-30.34L365.82-30.34Q370.50-33.92 378.62-33.92L378.62-33.92L378.62-33.92Q382.78-33.92 385.25-32.26L385.25-32.26L385.25-32.26Q387.71-30.59 387.71-27.78L387.71-27.78L387.71-27.78Q387.71-24.96 386.02-23.36L386.02-23.36L386.02-23.36Q384.32-21.76 381.25-21.76L381.25-21.76L381.25-21.76Q379.14-21.76 378.11-22.46Z" fill="#444"></path></g></g><style>text {
  font-size: 64px;
  font-family: Arial Black;
  dominant-baseline: central;
  text-anchor: middle;
}</style></svg>